<svg xmlns="http://www.w3.org/2000/svg" viewBox="0 0 18.11 18.11"><defs><style>.cls-1{fill:#005dff;}</style></defs><g id="Layer_2" data-name="Layer 2"><g id="Layer_1-2" data-name="Layer 1"><path class="cls-1" d="M18,9.44a.84.84,0,0,0,.08-.38A.85.85,0,0,0,18,8.67a1.13,1.13,0,0,0-.13-.2.83.83,0,0,0-.08-.12L9.76.29a1,1,0,0,0-1.41,0,1,1,0,0,0,0,1.42L14.7,8.06H1a1,1,0,0,0,0,2H14.7L8.35,16.41a1,1,0,0,0,0,1.41,1,1,0,0,0,.71.29,1,1,0,0,0,.7-.29l8.06-8.06s.05-.08.08-.12A.69.69,0,0,0,18,9.44Z"/></g></g></svg>