<svg xmlns="http://www.w3.org/2000/svg" width="1920.001" height="647.193" viewBox="0 0 1920.001 647.193"><defs><style>.a{fill:#005dff;}</style></defs><path class="a" d="M18001,18876h-883.5c22.908-6.162,45.953-12.949,68.492-20.172,22.443-7.191,45.021-15.018,67.109-23.262,21.992-8.209,44.078-17.047,65.643-26.27,21.49-9.191,43.055-19.014,64.1-29.2,20.941-10.135,41.957-20.914,62.463-32.035,20.408-11.074,40.846-22.781,60.748-34.8,19.838-11.98,39.672-24.586,58.949-37.471,19.215-12.844,38.416-26.322,57.072-40.064,18.594-13.7,37.135-28.025,55.105-42.576,17.932-14.518,35.783-29.658,53.063-45,17.26-15.328,34.395-31.258,50.932-47.346s32.932-32.785,48.721-49.609,31.4-34.246,46.426-51.787c15.053-17.586,29.873-35.715,44.047-53.885,14.23-18.242,28.223-37.049,41.588-55.895,13.379-18.869,26.514-38.324,39.043-57.828V18876Zm-1674.507,0H16081v-89.471c19.536,9.105,39.55,17.916,59.486,26.184,20,8.295,40.456,16.264,60.791,23.684,20.433,7.457,41.3,14.563,62.026,21.121,20.839,6.592,42.1,12.811,63.183,18.482h.008Z" transform="translate(-16081.001 -18228.805)"/></svg>