<svg xmlns="http://www.w3.org/2000/svg" width="122" height="125" viewBox="0 0 122 125">
  <path id="Subtraction_60" data-name="Subtraction 60" d="M125,122H0v-.137A120.873,120.873,0,0,1,.645,109.4,118.729,118.729,0,0,1,5.613,85.624c1.205-3.782,2.618-7.549,4.2-11.2a120.972,120.972,0,0,1,11.512-20.7A123.429,123.429,0,0,1,36.571,35.693,125.268,125.268,0,0,1,76.259,9.577c3.737-1.543,7.6-2.921,11.471-4.1,3.919-1.189,7.945-2.2,11.966-3,4.078-.814,8.249-1.436,12.4-1.847C116.306.212,120.6,0,124.86,0H125V122Z" transform="translate(122) rotate(90)" fill="#003796"/>
</svg>
