<svg xmlns="http://www.w3.org/2000/svg" width="40.202" height="59.788" viewBox="0 0 40.202 59.788">
  <g id="star" transform="translate(10778.598 11962.591)">
    <path id="Polygon_5" data-name="Polygon 5" d="M11.916,3.8a1,1,0,0,1,1.938,0l2.807,11a1,1,0,0,0,.385.564l7.6,5.47a1,1,0,0,1,0,1.623l-7.6,5.47a1,1,0,0,0-.385.564l-2.807,11a1,1,0,0,1-1.938,0l-2.807-11a1,1,0,0,0-.385-.564l-7.6-5.47a1,1,0,0,1,0-1.623l7.6-5.47A1,1,0,0,0,9.11,14.8Z" transform="translate(-10778.598 -11962.591)" fill="#ffda44"/>
    <path id="Polygon_6" data-name="Polygon 6" d="M6.246,3.881a1,1,0,0,1,1.94,0L9.293,8.309a1,1,0,0,0,.378.563l3.664,2.692a1,1,0,0,1,0,1.612L9.671,15.867a1,1,0,0,0-.378.563L8.186,20.859a1,1,0,0,1-1.94,0L5.139,16.431a1,1,0,0,0-.378-.563L1.1,13.176a1,1,0,0,1,0-1.612L4.76,8.872a1,1,0,0,0,.378-.563Z" transform="translate(-10752.827 -11927.543)" fill="#ffda44"/>
  </g>
</svg>
